<svg width="1280" height="832" viewBox="0 0 1280 832" fill="none" xmlns="http://www.w3.org/2000/svg">
<path d="M1300 757V847H834.5L620.036 407.362L616.646 408.026L526 847H217.5L610.594 409.214L603.758 410.554L-18 847V532.5L603.758 410.554L613.815 403.495L613.478 403.321L-18 284.5V78L613.478 403.321L613.938 403.408L617.044 401.228L414 -15H704L618.221 400.402L618.991 399.861L991.5 -15H1210L618.991 399.861L618.136 400.814L617.751 402.678L618.529 404.272L627.339 405.929L1300 274V532.5L627.339 405.929L620.966 407.179L1300 757Z" fill="#513699"/>
</svg>
